<svg preserveAspectRatio="none" overflow="visible" style="display: block;" width="13" height="13" viewBox="0 0 13 13" fill="none" xmlns="http://www.w3.org/2000/svg">
<g id="I_Truck">
<path id="Vector" d="M8.125 4.875H2.03125C1.58252 4.875 1.21875 5.23877 1.21875 5.6875V10.1562C1.21875 10.605 1.58252 10.9688 2.03125 10.9688H8.125C8.57373 10.9688 8.9375 10.605 8.9375 10.1562V5.6875C8.9375 5.23877 8.57373 4.875 8.125 4.875Z" stroke="#93BC02" stroke-width="1.09688" stroke-linecap="round" stroke-linejoin="round"/>
<path id="Vector_2" d="M8.9375 6.5H10.725L11.7812 8.9375V10.9688H8.9375" stroke="#93BC02" stroke-width="1.09688" stroke-linecap="round" stroke-linejoin="round"/>
<path id="Vector_3" d="M3.65625 11.9438C4.19473 11.9438 4.63125 11.5072 4.63125 10.9688C4.63125 10.4303 4.19473 9.99375 3.65625 9.99375C3.11777 9.99375 2.68125 10.4303 2.68125 10.9688C2.68125 11.5072 3.11777 11.9438 3.65625 11.9438Z" stroke="#93BC02" stroke-width="1.09688" stroke-linecap="round" stroke-linejoin="round"/>
<path id="Vector_4" d="M9.5875 11.9438C10.126 11.9438 10.5625 11.5072 10.5625 10.9688C10.5625 10.4303 10.126 9.99375 9.5875 9.99375C9.04902 9.99375 8.6125 10.4303 8.6125 10.9688C8.6125 11.5072 9.04902 11.9438 9.5875 11.9438Z" stroke="#93BC02" stroke-width="1.09688" stroke-linecap="round" stroke-linejoin="round"/>
</g>
</svg>
